<?xml version="1.0" encoding="UTF-8" standalone="no"?><!DOCTYPE svg PUBLIC "-//W3C//DTD SVG 1.1//EN" "http://www.w3.org/Graphics/SVG/1.1/DTD/svg11.dtd"><svg width="100%" height="100%" viewBox="0 0 541 540" version="1.1" xmlns="http://www.w3.org/2000/svg" xmlns:xlink="http://www.w3.org/1999/xlink" xml:space="preserve" xmlns:serif="http://www.serif.com/" style="fill-rule:evenodd;clip-rule:evenodd;stroke-linecap:round;stroke-linejoin:round;stroke-miterlimit:1.5;"><rect id="Splitview" x="0.166" y="0" width="540" height="540" style="fill:#fff;fill-opacity:0;"/><path d="M293.498,110.891l-0,-49.462l190.412,0c13.807,0 25,11.193 25,25l-0,367.752c-0,13.807 -11.193,25 -25,25l-190.412,-0l-0,-49.462l139.402,-0c13.807,-0 25,-11.193 25,-25l-0,-268.828c-0,-13.807 -11.193,-25 -25,-25l-139.402,0Z" style="fill:#fefefe;"/><clipPath id="_clip1"><rect x="293.498" y="169.619" width="179.909" height="203.071"/></clipPath><g clip-path="url(#_clip1)"><path d="M293.498,283.901l66.929,-60.008l112.98,113.231" style="fill:none;stroke:#fefefe;stroke-width:45px;"/></g><path d="M253.66,61.429l0,50.807l-197.922,0c-13.808,0 -25,-11.192 -25,-25l-0,-0.807c-0,-13.807 11.192,-25 25,-25l197.922,0Z" style="fill:#fefefe;"/><path d="M253.66,183.947l0,50.808l-197.922,-0c-13.808,-0 -25,-11.193 -25,-25l-0,-0.808c-0,-13.807 11.192,-25 25,-25l197.922,0Z" style="fill:#fefefe;"/><path d="M253.66,306.466l0,50.807l-197.922,-0c-13.808,-0 -25,-11.193 -25,-25l-0,-0.807c-0,-13.807 11.192,-25 25,-25l197.922,-0Z" style="fill:#fefefe;"/><path d="M253.66,428.984l0,50.807l-197.922,-0c-13.808,-0 -25,-11.193 -25,-25l-0,-0.807c-0,-13.807 11.192,-25 25,-25l197.922,-0Z" style="fill:#fefefe;"/></svg>