<?xml version="1.0" encoding="UTF-8" standalone="no"?><!DOCTYPE svg PUBLIC "-//W3C//DTD SVG 1.1//EN" "http://www.w3.org/Graphics/SVG/1.1/DTD/svg11.dtd"><svg width="100%" height="100%" viewBox="0 0 540 540" version="1.1" xmlns="http://www.w3.org/2000/svg" xmlns:xlink="http://www.w3.org/1999/xlink" xml:space="preserve" xmlns:serif="http://www.serif.com/" style="fill-rule:evenodd;clip-rule:evenodd;stroke-linejoin:round;stroke-miterlimit:2;"><rect id="Edit" x="0" y="0" width="540" height="540" style="fill:#fff;fill-opacity:0;"/><g id="Edit1" serif:id="Edit"><path d="M484.086,60.819c6.63,0 12.989,2.634 17.678,7.322c4.688,4.689 7.322,11.048 7.322,17.678l0,0.807c0,6.631 -2.634,12.99 -7.322,17.678c-4.689,4.688 -11.048,7.322 -17.678,7.322l-428.172,0c-6.63,0 -12.989,-2.634 -17.678,-7.322c-4.688,-4.688 -7.322,-11.047 -7.322,-17.678l-0,-0.807c-0,-6.63 2.634,-12.989 7.322,-17.678c4.689,-4.688 11.048,-7.322 17.678,-7.322l428.172,0Z" style="fill:#fefefe;"/><path d="M484.086,183.337c6.63,0 12.989,2.634 17.678,7.323c4.688,4.688 7.322,11.047 7.322,17.677l0,0.807c0,6.631 -2.634,12.99 -7.322,17.678c-4.689,4.689 -11.048,7.322 -17.678,7.322l-428.172,0c-6.63,0 -12.989,-2.633 -17.678,-7.322c-4.688,-4.688 -7.322,-11.047 -7.322,-17.678l-0,-0.807c-0,-6.63 2.634,-12.989 7.322,-17.677c4.689,-4.689 11.048,-7.323 17.678,-7.323l428.172,0Z" style="fill:#fefefe;"/><path d="M484.086,305.856c6.63,-0 12.989,2.633 17.678,7.322c4.688,4.688 7.322,11.047 7.322,17.678l0,0.807c0,6.63 -2.634,12.989 -7.322,17.677c-4.689,4.689 -11.048,7.323 -17.678,7.323l-428.172,-0c-6.63,-0 -12.989,-2.634 -17.678,-7.323c-4.688,-4.688 -7.322,-11.047 -7.322,-17.677l-0,-0.807c-0,-6.631 2.634,-12.99 7.322,-17.678c4.689,-4.689 11.048,-7.322 17.678,-7.322l428.172,-0Z" style="fill:#fefefe;"/><path d="M484.086,428.374c6.63,-0 12.989,2.634 17.678,7.322c4.688,4.688 7.322,11.047 7.322,17.678l0,0.807c0,6.63 -2.634,12.989 -7.322,17.678c-4.689,4.688 -11.048,7.322 -17.678,7.322l-428.172,-0c-6.63,-0 -12.989,-2.634 -17.678,-7.322c-4.688,-4.689 -7.322,-11.048 -7.322,-17.678l-0,-0.807c-0,-6.631 2.634,-12.99 7.322,-17.678c4.689,-4.688 11.048,-7.322 17.678,-7.322l428.172,-0Z" style="fill:#fefefe;"/></g></svg>