<?xml version="1.0" encoding="UTF-8" standalone="no"?><!DOCTYPE svg PUBLIC "-//W3C//DTD SVG 1.1//EN" "http://www.w3.org/Graphics/SVG/1.1/DTD/svg11.dtd"><svg width="100%" height="100%" viewBox="0 0 541 541" version="1.1" xmlns="http://www.w3.org/2000/svg" xmlns:xlink="http://www.w3.org/1999/xlink" xml:space="preserve" xmlns:serif="http://www.serif.com/" style="fill-rule:evenodd;clip-rule:evenodd;stroke-linecap:round;stroke-linejoin:round;stroke-miterlimit:1.5;"><rect id="Preview" x="0.132" y="0.305" width="540" height="540" style="fill:#fff;fill-opacity:0;"/><path d="M484.218,61.734c13.807,0 25,11.193 25,25l-0,367.752c-0,13.807 -11.193,25 -25,25l-428.172,-0c-13.807,-0 -25,-11.193 -25,-25l-0,-367.752c-0,-13.807 11.193,-25 25,-25l428.172,0Zm-43.931,41.745l-340.31,0c-13.807,0 -25,11.193 -25,25l0,284.262c0,13.807 11.193,25 25,25l340.31,0c13.807,0 25,-11.193 25,-25l-0,-284.262c-0,-13.807 -11.193,-25 -25,-25Z" style="fill:#fefefe;"/><circle cx="151.372" cy="175.294" r="33.02" style="fill:#fefefe;"/><path d="M59.255,396.921l110.86,-104.028l149.43,161.331l-95.9,-103.538l145.795,-142.373l112.98,113.231" style="fill:none;stroke:#fefefe;stroke-width:45px;"/></svg>