<?xml version="1.0" encoding="UTF-8" standalone="no"?><!DOCTYPE svg PUBLIC "-//W3C//DTD SVG 1.1//EN" "http://www.w3.org/Graphics/SVG/1.1/DTD/svg11.dtd"><svg width="100%" height="100%" viewBox="0 0 541 541" version="1.1" xmlns="http://www.w3.org/2000/svg" xmlns:xlink="http://www.w3.org/1999/xlink" xml:space="preserve" xmlns:serif="http://www.serif.com/" style="fill-rule:evenodd;clip-rule:evenodd;stroke-linejoin:round;stroke-miterlimit:2;"><rect id="Edit_dark" x="0.045" y="0.143" width="540" height="540" style="fill:#fff;fill-opacity:0;"/><path d="M484.131,60.962c6.63,-0 12.989,2.634 17.677,7.322c4.689,4.689 7.323,11.048 7.323,17.678l-0,0.807c-0,6.631 -2.634,12.989 -7.323,17.678c-4.688,4.688 -11.047,7.322 -17.677,7.322l-428.172,0c-6.631,0 -12.99,-2.634 -17.678,-7.322c-4.688,-4.689 -7.322,-11.047 -7.322,-17.678l-0,-0.807c-0,-6.63 2.634,-12.989 7.322,-17.678c4.688,-4.688 11.047,-7.322 17.678,-7.322l428.172,-0Z" style="fill:#626162;"/><path d="M484.131,183.48c6.63,0 12.989,2.634 17.677,7.322c4.689,4.689 7.323,11.048 7.323,17.678l-0,0.807c-0,6.631 -2.634,12.99 -7.323,17.678c-4.688,4.688 -11.047,7.322 -17.677,7.322l-428.172,0c-6.631,0 -12.99,-2.634 -17.678,-7.322c-4.688,-4.688 -7.322,-11.047 -7.322,-17.678l-0,-0.807c-0,-6.63 2.634,-12.989 7.322,-17.678c4.688,-4.688 11.047,-7.322 17.678,-7.322l428.172,0Z" style="fill:#626162;"/><path d="M484.131,305.998c6.63,0 12.989,2.634 17.677,7.323c4.689,4.688 7.323,11.047 7.323,17.677l-0,0.807c-0,6.631 -2.634,12.99 -7.323,17.678c-4.688,4.689 -11.047,7.322 -17.677,7.322l-428.172,0c-6.631,0 -12.99,-2.633 -17.678,-7.322c-4.688,-4.688 -7.322,-11.047 -7.322,-17.678l-0,-0.807c-0,-6.63 2.634,-12.989 7.322,-17.677c4.688,-4.689 11.047,-7.323 17.678,-7.323l428.172,0Z" style="fill:#626162;"/><path d="M484.131,428.516c6.63,0 12.989,2.634 17.677,7.323c4.689,4.688 7.323,11.047 7.323,17.677l-0,0.808c-0,6.63 -2.634,12.989 -7.323,17.677c-4.688,4.689 -11.047,7.323 -17.677,7.323l-428.172,-0c-6.631,-0 -12.99,-2.634 -17.678,-7.323c-4.688,-4.688 -7.322,-11.047 -7.322,-17.677l-0,-0.808c-0,-6.63 2.634,-12.989 7.322,-17.677c4.688,-4.689 11.047,-7.323 17.678,-7.323l428.172,0Z" style="fill:#626162;"/></svg>