<?xml version="1.0" encoding="UTF-8" standalone="no"?><!DOCTYPE svg PUBLIC "-//W3C//DTD SVG 1.1//EN" "http://www.w3.org/Graphics/SVG/1.1/DTD/svg11.dtd"><svg width="100%" height="100%" viewBox="0 0 541 541" version="1.1" xmlns="http://www.w3.org/2000/svg" xmlns:xlink="http://www.w3.org/1999/xlink" xml:space="preserve" xmlns:serif="http://www.serif.com/" style="fill-rule:evenodd;clip-rule:evenodd;stroke-linecap:round;stroke-linejoin:round;stroke-miterlimit:1.5;"><rect id="Preview_dark" x="0.177" y="0.448" width="540" height="540" style="fill:#fff;fill-opacity:0;"/><path d="M484.263,61.877c13.807,0 25,11.193 25,25l-0,367.752c-0,13.807 -11.193,25 -25,25l-428.172,-0c-13.808,-0 -25,-11.193 -25,-25l-0,-367.752c-0,-13.807 11.192,-25 25,-25l428.172,0Zm-43.932,41.745l-340.309,-0c-13.807,-0 -25,11.193 -25,25l-0,284.262c-0,13.807 11.193,25 25,25l340.309,0c13.807,0 25,-11.193 25,-25l0,-284.262c0,-13.807 -11.193,-25 -25,-25Z" style="fill:#626162;"/><circle cx="151.417" cy="175.437" r="33.02" style="fill:#626162;"/><path d="M59.3,397.064l110.86,-104.029l149.43,161.332l-95.9,-103.538l145.795,-142.373l112.98,113.231" style="fill:none;stroke:#626162;stroke-width:45px;"/></svg>