<?xml version="1.0" encoding="UTF-8" standalone="no"?><!DOCTYPE svg PUBLIC "-//W3C//DTD SVG 1.1//EN" "http://www.w3.org/Graphics/SVG/1.1/DTD/svg11.dtd"><svg width="100%" height="100%" viewBox="0 0 541 541" version="1.1" xmlns="http://www.w3.org/2000/svg" xmlns:xlink="http://www.w3.org/1999/xlink" xml:space="preserve" xmlns:serif="http://www.serif.com/" style="fill-rule:evenodd;clip-rule:evenodd;stroke-linecap:round;stroke-linejoin:round;stroke-miterlimit:1.5;"><rect id="Splitview_dark" x="0.211" y="0.143" width="540" height="540" style="fill:#fff;fill-opacity:0;"/><path d="M293.543,111.034l-0,-49.462l190.411,0c13.807,0 25,11.193 25,25l0,367.752c0,13.807 -11.193,25 -25,25l-190.411,-0l-0,-49.462l139.402,-0c13.807,-0 25,-11.193 25,-25l-0,-268.828c-0,-13.807 -11.193,-25 -25,-25l-139.402,0Z" style="fill:#626162;"/><clipPath id="_clip1"><rect x="293.543" y="169.761" width="179.909" height="203.071"/></clipPath><g clip-path="url(#_clip1)"><path d="M293.543,284.044l66.928,-60.009l112.98,113.231" style="fill:none;stroke:#626162;stroke-width:45px;"/></g><path d="M253.705,61.572l-0,50.807l-197.923,0c-13.807,0 -25,-11.193 -25,-25l0,-0.807c0,-13.807 11.193,-25 25,-25l197.923,0Z" style="fill:#626162;"/><path d="M253.705,184.09l-0,50.807l-197.923,0c-13.807,0 -25,-11.192 -25,-25l0,-0.807c0,-13.807 11.193,-25 25,-25l197.923,0Z" style="fill:#626162;"/><path d="M253.705,306.608l-0,50.808l-197.923,-0c-13.807,-0 -25,-11.193 -25,-25l0,-0.808c0,-13.807 11.193,-25 25,-25l197.923,0Z" style="fill:#626162;"/><path d="M253.705,429.127l-0,50.807l-197.923,-0c-13.807,-0 -25,-11.193 -25,-25l0,-0.807c0,-13.808 11.193,-25 25,-25l197.923,-0Z" style="fill:#626162;"/></svg>